<?xml version="1.0" encoding="UTF-8" standalone="no"?>
<!DOCTYPE svg PUBLIC "-//W3C//DTD SVG 1.1//EN" "http://www.w3.org/Graphics/SVG/1.1/DTD/svg11.dtd">
<svg width="100%" height="100%" viewBox="0 0 436 80" version="1.1" xmlns="http://www.w3.org/2000/svg" xmlns:xlink="http://www.w3.org/1999/xlink" xml:space="preserve" xmlns:serif="http://www.serif.com/" style="fill-rule:evenodd;clip-rule:evenodd;stroke-linejoin:round;stroke-miterlimit:2;">
    <g transform="matrix(1,0,0,1,-2436.948214,-88)">
        <g transform="matrix(0.7,0,0,0.237037,492.876348,0)">
            <g transform="matrix(1.411769,0,0,4.169131,-905.09692,239.822577)">
                <path d="M2768.439,112.476C2761.805,112.476 2757.002,111.436 2754.031,109.357C2751.061,107.277 2749.575,104.455 2749.575,100.89C2749.575,98.86 2750.256,96.942 2751.618,95.134C2752.979,93.327 2754.626,91.978 2756.557,91.087C2754.279,89.75 2753.14,87.621 2753.14,84.7C2753.14,83.016 2753.685,81.42 2754.774,79.91C2755.863,78.399 2757.274,77.224 2759.007,76.382C2756.284,75.342 2754.254,73.758 2752.917,71.629C2751.581,69.5 2750.912,66.975 2750.912,64.053C2750.912,61.231 2751.742,58.768 2753.4,56.664C2755.059,54.559 2757.287,52.938 2760.084,51.799C2762.882,50.66 2765.914,50.091 2769.182,50.091C2774.975,50.091 2779.283,51.205 2782.105,53.433C2782.748,52.591 2783.838,51.799 2785.373,51.056C2786.907,50.314 2788.492,49.942 2790.126,49.942L2792.725,49.942L2792.725,58.038L2785.075,58.038C2785.818,59.622 2786.189,61.305 2786.189,63.088C2786.239,67.593 2784.655,71.195 2781.436,73.894C2778.218,76.592 2773.811,77.941 2768.217,77.941C2765.89,77.941 2763.934,77.768 2762.349,77.422C2761.854,78.065 2761.471,78.746 2761.198,79.464C2760.926,80.182 2760.79,80.813 2760.79,81.358C2760.79,82.992 2761.372,84.106 2762.535,84.7C2763.699,85.294 2765.791,85.591 2768.811,85.591L2776.757,85.591C2786.858,85.591 2791.908,89.255 2791.908,96.583C2791.908,99.652 2790.819,102.4 2788.64,104.826C2786.462,107.253 2783.565,109.134 2779.951,110.471C2776.337,111.808 2772.499,112.476 2768.439,112.476ZM2818.348,112.476C2811.713,112.476 2806.91,111.436 2803.94,109.357C2800.969,107.277 2799.483,104.455 2799.483,100.89C2799.483,98.86 2800.164,96.942 2801.526,95.134C2802.887,93.327 2804.534,91.978 2806.465,91.087C2804.187,89.75 2803.048,87.621 2803.048,84.7C2803.048,83.016 2803.593,81.42 2804.682,79.91C2805.771,78.399 2807.183,77.224 2808.915,76.382C2806.192,75.342 2804.162,73.758 2802.826,71.629C2801.489,69.5 2800.82,66.975 2800.82,64.053C2800.82,61.231 2801.65,58.768 2803.308,56.664C2804.967,54.559 2807.195,52.938 2809.992,51.799C2812.79,50.66 2815.822,50.091 2819.09,50.091C2824.883,50.091 2829.191,51.205 2832.013,53.433C2832.657,52.591 2833.746,51.799 2835.281,51.056C2836.816,50.314 2838.4,49.942 2840.034,49.942L2842.633,49.942L2842.633,58.038L2834.984,58.038C2835.726,59.622 2836.098,61.305 2836.098,63.088C2836.147,67.593 2834.563,71.195 2831.344,73.894C2828.126,76.592 2823.72,77.941 2818.125,77.941C2815.798,77.941 2813.842,77.768 2812.258,77.422C2811.762,78.065 2811.379,78.746 2811.106,79.464C2810.834,80.182 2810.698,80.813 2810.698,81.358C2810.698,82.992 2811.28,84.106 2812.443,84.7C2813.607,85.294 2815.699,85.591 2818.719,85.591L2826.666,85.591C2836.766,85.591 2841.816,89.255 2841.816,96.583C2841.816,99.652 2840.727,102.4 2838.548,104.826C2836.37,107.253 2833.473,109.134 2829.859,110.471C2826.245,111.808 2822.408,112.476 2818.348,112.476ZM2819.462,107.352C2822.581,107.352 2825.279,106.597 2827.557,105.086C2829.834,103.576 2830.973,101.484 2830.973,98.811C2830.973,96.682 2830.416,95.147 2829.302,94.206C2828.188,93.265 2826.195,92.795 2823.323,92.795L2815.228,92.795C2813.99,92.795 2812.852,92.721 2811.812,92.572C2810.475,94.355 2809.807,96.484 2809.807,98.959C2809.807,101.682 2810.549,103.762 2812.035,105.198C2813.52,106.634 2815.996,107.352 2819.462,107.352ZM2769.553,107.352C2772.673,107.352 2775.371,106.597 2777.649,105.086C2779.926,103.576 2781.065,101.484 2781.065,98.811C2781.065,96.682 2780.508,95.147 2779.394,94.206C2778.28,93.265 2776.287,92.795 2773.415,92.795L2765.32,92.795C2764.082,92.795 2762.944,92.721 2761.904,92.572C2760.567,94.355 2759.899,96.484 2759.899,98.959C2759.899,101.682 2760.641,103.762 2762.127,105.198C2763.612,106.634 2766.088,107.352 2769.553,107.352ZM2703.901,80.838C2703.901,76.332 2706.166,72.941 2710.696,70.663C2715.226,68.386 2721.081,67.222 2728.26,67.173L2728.26,65.464C2728.26,63.434 2728.05,61.85 2727.629,60.711C2727.208,59.572 2726.441,58.718 2725.327,58.149C2724.213,57.58 2722.591,57.295 2720.462,57.295C2718.036,57.295 2715.858,57.604 2713.927,58.223C2711.996,58.842 2709.991,59.647 2707.911,60.637L2705.609,55.884C2706.351,55.24 2707.602,54.473 2709.359,53.582C2711.117,52.69 2713.209,51.911 2715.635,51.242C2718.061,50.574 2720.561,50.239 2723.136,50.239C2726.948,50.239 2729.931,50.735 2732.085,51.725C2734.239,52.715 2735.786,54.299 2736.727,56.478C2737.668,58.657 2738.138,61.578 2738.138,65.242L2738.138,87.968L2742.149,87.968L2742.149,92.127C2741.158,92.374 2739.747,92.622 2737.915,92.869C2736.083,93.117 2734.474,93.241 2733.088,93.241C2731.404,93.241 2730.278,92.993 2729.709,92.498C2729.139,92.003 2728.855,90.988 2728.855,89.453L2728.855,87.448C2727.518,88.933 2725.785,90.27 2723.656,91.458C2721.527,92.647 2719.125,93.241 2716.452,93.241C2714.174,93.241 2712.082,92.758 2710.176,91.792C2708.27,90.827 2706.747,89.416 2705.609,87.559C2704.47,85.702 2703.901,83.462 2703.901,80.838ZM2868.998,93.241C2862.463,93.241 2857.598,91.322 2854.405,87.485C2851.211,83.648 2849.614,78.412 2849.614,71.777C2849.614,67.321 2850.444,63.459 2852.102,60.191C2853.761,56.924 2856.1,54.423 2859.121,52.69C2862.141,50.957 2865.631,50.091 2869.592,50.091C2874.544,50.091 2878.356,51.391 2881.03,53.99C2883.703,56.589 2885.09,60.29 2885.189,65.093C2885.189,68.361 2884.991,70.787 2884.595,72.371L2860.457,72.371C2860.656,76.877 2861.72,80.38 2863.651,82.88C2865.582,85.381 2868.33,86.631 2871.895,86.631C2873.826,86.631 2875.819,86.309 2877.873,85.665C2879.928,85.022 2881.55,84.254 2882.738,83.363L2884.595,87.448C2883.258,88.884 2881.092,90.208 2878.096,91.421C2875.101,92.634 2872.068,93.241 2868.998,93.241ZM2953.292,71.851C2953.292,67.197 2954.221,63.236 2956.078,59.969C2957.934,56.701 2960.422,54.238 2963.541,52.579C2966.661,50.92 2970.052,50.091 2973.716,50.091C2979.955,50.091 2984.77,52.01 2988.161,55.847C2991.553,59.684 2993.249,64.895 2993.249,71.48C2993.249,76.184 2992.32,80.182 2990.464,83.474C2988.607,86.767 2986.131,89.218 2983.037,90.827C2979.942,92.436 2976.538,93.241 2972.825,93.241C2966.636,93.241 2961.833,91.322 2958.417,87.485C2955.001,83.648 2953.292,78.437 2953.292,71.851ZM2687.042,93.166C2685.408,93.166 2684.22,92.82 2683.477,92.127C2682.734,91.433 2682.363,90.394 2682.363,89.007L2682.363,87.002C2681.026,88.636 2679.145,90.084 2676.718,91.347C2674.292,92.609 2671.866,93.241 2669.44,93.241C2664.687,93.241 2661.295,92.015 2659.265,89.564C2657.235,87.114 2656.22,83.066 2656.22,77.422L2656.22,56.478L2652.507,55.438L2652.507,51.205L2665.133,50.239L2665.207,50.239L2666.692,51.279L2666.692,77.422C2666.692,81.036 2667.138,83.561 2668.029,84.997C2668.92,86.433 2670.579,87.151 2673.005,87.151C2675.926,87.151 2678.649,86.012 2681.175,83.734L2681.175,56.478L2676.199,55.364L2676.199,51.205L2689.641,50.239L2689.79,50.239L2691.572,51.279L2691.572,87.819L2695.731,87.819L2695.657,92.052C2695.459,92.102 2694.543,92.3 2692.909,92.647C2691.275,92.993 2689.319,93.166 2687.042,93.166ZM2627.702,93.241C2621.166,93.241 2616.301,91.322 2613.108,87.485C2609.914,83.648 2608.318,78.412 2608.318,71.777C2608.318,67.321 2609.147,63.459 2610.806,60.191C2612.464,56.924 2614.804,54.423 2617.824,52.69C2620.844,50.957 2624.335,50.091 2628.296,50.091C2633.247,50.091 2637.059,51.391 2639.733,53.99C2642.407,56.589 2643.793,60.29 2643.892,65.093C2643.892,68.361 2643.694,70.787 2643.298,72.371L2619.161,72.371C2619.359,76.877 2620.423,80.38 2622.354,82.88C2624.285,85.381 2627.033,86.631 2630.598,86.631C2632.529,86.631 2634.522,86.309 2636.577,85.665C2638.631,85.022 2640.253,84.254 2641.441,83.363L2643.298,87.448C2641.961,88.884 2639.795,90.208 2636.799,91.421C2633.804,92.634 2630.771,93.241 2627.702,93.241ZM2928.71,58.186L2923.437,56.775L2923.437,51.799L2937.028,50.165L2937.176,50.165L2939.256,51.651L2939.256,87.373L2944.232,87.968L2944.232,92.424L2923.511,92.424L2923.511,87.968L2928.71,87.299L2928.71,58.186ZM2899.151,38.134L2893.655,37.168L2893.655,33.158L2907.395,31.524L2907.543,31.524L2909.549,32.935L2909.549,87.373L2914.97,87.968L2914.97,92.424L2893.952,92.424L2893.952,87.968L2899.151,87.299L2899.151,38.134ZM3007.879,58.186L3003.126,56.849L3003.126,51.725L3015.455,50.165L3015.678,50.165L3017.534,51.651L3017.534,54.547L3017.46,56.329C3019.193,54.696 3021.446,53.284 3024.218,52.096C3026.991,50.908 3029.789,50.314 3032.611,50.314C3035.631,50.314 3037.995,50.871 3039.703,51.985C3041.411,53.099 3042.637,54.844 3043.38,57.221C3044.122,59.597 3044.494,62.816 3044.494,66.876L3044.494,87.373L3049.024,87.968L3049.024,92.424L3029.863,92.424L3029.863,87.968L3033.873,87.373L3033.873,66.876C3033.873,64.301 3033.7,62.283 3033.353,60.823C3033.007,59.362 3032.376,58.298 3031.46,57.629C3030.544,56.961 3029.244,56.627 3027.561,56.627C3024.738,56.627 3021.718,57.84 3018.5,60.266L3018.5,87.299L3022.956,87.968L3022.956,92.424L3003.572,92.424L3003.572,87.968L3007.879,87.299L3007.879,58.186ZM2973.419,88.413C2979.014,88.413 2981.811,83.016 2981.811,72.223C2981.811,66.578 2981.143,62.283 2979.806,59.337C2978.469,56.391 2976.291,54.918 2973.271,54.918C2967.527,54.918 2964.656,60.315 2964.656,71.109C2964.656,76.753 2965.361,81.048 2966.772,83.994C2968.183,86.94 2970.399,88.413 2973.419,88.413ZM2721.205,87.076C2722.245,87.076 2723.433,86.767 2724.77,86.148C2726.107,85.529 2727.27,84.774 2728.26,83.883L2728.26,71.703C2723.804,71.703 2720.475,72.458 2718.271,73.968C2716.068,75.478 2714.966,77.422 2714.966,79.798C2714.966,82.175 2715.523,83.982 2716.638,85.22C2717.752,86.458 2719.274,87.076 2721.205,87.076ZM2768.959,73.337C2773.564,73.337 2775.866,70.193 2775.866,63.905C2775.866,60.687 2775.284,58.322 2774.121,56.812C2772.957,55.302 2771.187,54.547 2768.811,54.547C2766.484,54.547 2764.689,55.302 2763.426,56.812C2762.164,58.322 2761.533,60.587 2761.533,63.608C2761.533,70.094 2764.008,73.337 2768.959,73.337ZM2818.867,73.337C2823.472,73.337 2825.774,70.193 2825.774,63.905C2825.774,60.687 2825.193,58.322 2824.029,56.812C2822.866,55.302 2821.095,54.547 2818.719,54.547C2816.392,54.547 2814.597,55.302 2813.334,56.812C2812.072,58.322 2811.441,60.587 2811.441,63.608C2811.441,70.094 2813.916,73.337 2818.867,73.337ZM2874.791,67.915C2874.89,66.529 2874.94,65.464 2874.94,64.722C2874.94,58.137 2872.736,54.844 2868.33,54.844C2865.904,54.844 2864.022,55.81 2862.686,57.741C2861.349,59.672 2860.606,63.063 2860.457,67.915L2874.791,67.915ZM2633.494,67.915C2633.593,66.529 2633.643,65.464 2633.643,64.722C2633.643,58.137 2631.44,54.844 2627.033,54.844C2624.607,54.844 2622.726,55.81 2621.389,57.741C2620.052,59.672 2619.309,63.063 2619.161,67.915L2633.494,67.915ZM2932.646,44.372C2930.864,44.372 2929.452,43.852 2928.413,42.813C2927.373,41.773 2926.853,40.436 2926.853,38.802C2926.853,36.921 2927.447,35.361 2928.636,34.123C2929.824,32.886 2931.408,32.267 2933.389,32.267C2935.369,32.267 2936.879,32.799 2937.919,33.863C2938.959,34.928 2939.479,36.252 2939.479,37.837C2939.479,39.817 2938.885,41.402 2937.696,42.59C2936.508,43.778 2934.849,44.372 2932.72,44.372L2932.646,44.372Z" style="fill:rgb(209, 32, 38)" />
            </g>
        </g>
    </g>
</svg>
