<?xml version="1.0" encoding="UTF-8" standalone="no"?><!DOCTYPE svg PUBLIC "-//W3C//DTD SVG 1.1//EN" "http://www.w3.org/Graphics/SVG/1.1/DTD/svg11.dtd"><svg width="100%" height="100%" viewBox="0 0 200 200" version="1.1" xmlns="http://www.w3.org/2000/svg" xmlns:xlink="http://www.w3.org/1999/xlink" xml:space="preserve" xmlns:serif="http://www.serif.com/" style="fill-rule:evenodd;clip-rule:evenodd;stroke-linecap:round;stroke-linejoin:round;stroke-miterlimit:59;"><rect id="Tag-Icon" serif:id="Tag Icon" x="0" y="0" width="200" height="200" style="fill:none;"/><g id="Arte"><g id="Folha"></g><g id="Folha1" serif:id="Folha"><path d="M102.088,18.736c0.01,1.239 1.371,2.212 1.381,3.452l-0.027,156.458c-0.347,0.803 -0.416,1.798 -1.043,2.408c-0.012,0.012 -2.447,0.983 -2.455,0.979c-0.804,-0.345 -1.798,-0.416 -2.408,-1.043c-2.369,-2.432 -0.961,-3.135 3.1,-158.83c0.049,-1.895 0.711,-1.678 1.451,-3.424Z" style="fill:#d12026;"/><path d="M101.11,93.986c0,0 -12.192,-19.709 -10.652,-40.496c1.54,-20.786 11.905,-34.412 11.905,-34.412c0,0 12.265,17.441 12.77,35.927c0.534,19.522 -14.024,38.981 -14.024,38.981Z" style="fill:none;stroke:#d12026;stroke-width:5.53px;"/></g><g id="Folha2" serif:id="Folha"><path d="M45.861,82.831c0,0 18.745,1.53 36.785,22.96c14.222,16.894 9.987,36.485 9.987,36.485c0,0 -11.743,-1.697 -24.318,-15.041c-13.002,-13.798 -22.454,-44.404 -22.454,-44.404Z" style="fill:none;stroke:#d12026;stroke-width:5.53px;"/><path d="M45.049,82.083c0.586,0.161 1.229,0.004 1.815,0.166c0.12,0.033 2.253,2.122 2.445,2.31c10.522,10.302 29.417,33.316 38.27,46.474c4.672,6.944 7.714,11.947 13.717,16.666c0.662,0.52 0.746,1.265 0.761,1.391c0.002,0.017 -0.431,1.526 -0.439,1.531c-0.46,0.255 -0.861,0.7 -1.384,0.76c-1.059,0.12 -1.062,-0.046 -1.882,-0.728c-7.853,-6.531 -10.618,-13.43 -18.679,-24.822c-9.205,-13.008 -25.137,-33.216 -34.067,-41.72c-0.466,-0.444 -0.483,-0.432 -0.493,-0.467c-0.21,-0.763 0.145,-0.797 -0.064,-1.56Z" style="fill:#d12026;"/></g><g id="Folha3" serif:id="Folha"><path d="M155.833,66.242c0,0 -16.324,-1.839 -33.484,21.169c-13.569,18.192 -15.202,34.355 -15.202,34.355c0,0 12.357,-1.701 25.798,-15.046c13.899,-13.798 22.887,-40.478 22.887,-40.478Z" style="fill:none;stroke:#d12026;stroke-width:5.53px;"/><path d="M99.919,126.791c9.986,-10.741 9.693,-10.995 16.887,-20.224c7.264,-9.319 20.873,-24.703 33.7,-35.409c0.509,-0.424 0.565,0.043 1.225,0.093c-0.14,0.384 0.046,0.839 -0.094,1.223c-0.004,0.01 -9.637,8.235 -22.949,24.265c-6.649,8.007 -10.233,13.177 -12.029,15.69c-5.402,7.558 -6.841,9.32 -13.664,17.149l-3.077,-2.786Z" style="fill:#d12026;"/></g><path d="M156.217,72.844c0,-31.027 -25.19,-56.217 -56.217,-56.217c-31.027,0 -56.217,25.19 -56.217,56.217l0,54.312c0,31.027 25.19,56.217 56.217,56.217c31.027,0 56.217,-25.19 56.217,-56.217l0,-54.312Z" style="fill:none;stroke:#d12026;stroke-width:11.07px;"/></g></svg>